<svg width="686" height="105" viewBox="0 0 686 105" fill="none" xmlns="http://www.w3.org/2000/svg">
  <path d="M3.63602 96.8702V91.986L19.9167 88.7298H39.4536L54.9202 91.986V96.8702H3.63602ZM12.1834 96.8702C12.5904 93.207 12.8618 89.0012 12.9974 84.2526C13.1331 79.3684 13.2009 74.3485 13.2009 69.193C13.3366 64.0374 13.4044 59.1532 13.4044 54.5403V49.6561C13.4044 45.1789 13.4044 41.2444 13.4044 37.8526C13.4044 34.3251 13.3366 31.069 13.2009 28.0842C13.2009 24.9637 13.1331 21.8433 12.9974 18.7228L2.82199 15.4667V11.3965L42.7097 0L45.9658 2.4421V54.5403C45.9658 59.1532 45.9658 64.0374 45.9658 69.193C46.1015 74.3485 46.2372 79.3684 46.3729 84.2526C46.5085 89.0012 46.7799 93.207 47.1869 96.8702H12.1834ZM61.4325 96.8702V91.986L76.8992 88.7298H96.436L111.903 91.986V96.8702H61.4325ZM69.1658 96.8702C69.5729 93.207 69.8442 89.0012 69.9799 84.2526C70.2512 79.3684 70.3869 74.3485 70.3869 69.193C70.3869 64.0374 70.3869 59.1532 70.3869 54.5403V31.7474C70.3869 26.5918 69.505 22.9965 67.7413 20.9614C65.9775 18.9263 63.4676 17.9088 60.2115 17.9088C58.0407 17.9088 55.6664 18.3836 53.0887 19.3333C50.6465 20.283 48.2044 21.7076 45.7623 23.607C43.4559 25.3708 41.353 27.5415 39.4536 30.1193V24.014H41.8957C45.4232 18.0444 48.9506 13.3637 52.4781 9.97193C56.1413 6.44444 59.9401 3.9345 63.8746 2.4421C67.9448 0.814035 72.2863 0 76.8992 0C84.6325 0 90.8734 2.50994 95.622 7.52982C100.506 12.5497 102.948 20.283 102.948 30.7298V54.5403C102.948 59.1532 102.948 64.0374 102.948 69.193C103.084 74.3485 103.22 79.3684 103.355 84.2526C103.491 89.0012 103.762 93.207 104.169 96.8702H69.1658ZM118.415 96.8702V91.986L133.882 88.7298H153.418L168.885 91.986V96.8702H118.415ZM126.148 96.8702C126.555 93.207 126.827 89.0012 126.962 84.2526C127.234 79.3684 127.369 74.3485 127.369 69.193C127.369 64.0374 127.369 59.1532 127.369 54.5403V31.7474C127.369 26.5918 126.487 22.9965 124.724 20.9614C122.96 18.9263 120.45 17.9088 117.194 17.9088C115.023 17.9088 112.649 18.4515 110.071 19.5368C107.629 20.4865 105.187 21.9111 102.745 23.8105C100.438 25.7099 98.3354 27.9485 96.436 30.5263V24.014H98.8781C102.406 18.0444 105.933 13.3637 109.461 9.97193C113.124 6.44444 116.923 3.9345 120.857 2.4421C124.927 0.814035 129.269 0 133.882 0C141.615 0 147.856 2.50994 152.604 7.52982C157.489 12.5497 159.931 20.283 159.931 30.7298V54.5403C159.931 59.1532 159.931 64.0374 159.931 69.193C159.931 74.3485 159.999 79.3684 160.134 84.2526C160.406 89.0012 160.745 93.207 161.152 96.8702H126.148Z" fill="#171717"></path>
  <path d="M224.15 100.126C215.739 100.126 208.073 98.2947 201.154 94.6316C194.235 90.8327 188.74 85.338 184.67 78.1474C180.6 70.821 178.565 61.8667 178.565 51.2842C178.565 39.6164 180.735 30.0515 185.077 22.5895C189.418 14.9918 195.049 9.3614 201.968 5.69824C209.023 1.89941 216.417 0 224.15 0C232.562 0 239.685 1.6959 245.519 5.08771C251.353 8.34386 255.762 12.8211 258.747 18.5193C261.732 24.0819 263.224 30.3906 263.224 37.4456C263.224 39.4807 263.156 41.0409 263.021 42.1263C263.021 43.076 262.817 44.5006 262.41 46.4H191.589V41.1088H218.045C224.422 41.1088 228.763 40.0912 231.07 38.0561C233.512 35.8854 234.733 31.6117 234.733 25.2351C234.733 20.0795 234.326 16.145 233.512 13.4316C232.698 10.5825 231.545 8.6152 230.052 7.52982C228.56 6.30877 226.864 5.69824 224.965 5.69824C222.522 5.69824 220.352 6.9193 218.452 9.3614C216.688 11.6678 215.264 15.738 214.179 21.5719C213.229 27.2702 212.754 35.2749 212.754 45.586C212.754 53.7263 213.907 60.5778 216.214 66.1404C218.52 71.7029 221.708 75.9088 225.779 78.7579C229.849 81.607 234.462 83.0316 239.617 83.0316C243.687 83.0316 247.283 82.2854 250.403 80.793C253.659 79.3006 256.576 77.3333 259.154 74.8912L262.207 77.7403C259.629 83.0316 256.373 87.3053 252.438 90.5614C248.639 93.8175 244.366 96.1918 239.617 97.6842C234.869 99.3123 229.713 100.126 224.15 100.126Z" fill="#171717"></path>
  <path d="M273.722 96.8702V91.986L290.003 88.7298H309.54L325.007 91.986V96.8702H273.722ZM282.27 96.8702C282.677 93.207 282.948 89.0012 283.084 84.2526C283.219 79.3684 283.287 74.3485 283.287 69.193C283.423 64.0374 283.491 59.1532 283.491 54.5403V49.6561C283.491 45.1789 283.491 41.2444 283.491 37.8526C283.491 34.3251 283.423 31.069 283.287 28.0842C283.287 24.9637 283.219 21.8433 283.084 18.7228L272.908 15.4667V11.3965L312.796 0L316.052 2.4421V54.5403C316.052 59.1532 316.052 64.0374 316.052 69.193C316.188 74.3485 316.324 79.3684 316.459 84.2526C316.595 89.0012 316.866 93.207 317.273 96.8702H282.27ZM331.519 96.8702V91.986L346.986 88.7298H366.522L381.989 91.986V96.8702H331.519ZM339.252 96.8702C339.659 93.207 339.931 89.0012 340.066 84.2526C340.338 79.3684 340.473 74.3485 340.473 69.193C340.473 64.0374 340.473 59.1532 340.473 54.5403V31.7474C340.473 26.5918 339.591 22.9965 337.828 20.9614C336.064 18.9263 333.554 17.9088 330.298 17.9088C328.127 17.9088 325.753 18.3836 323.175 19.3333C320.733 20.283 318.291 21.7076 315.849 23.607C313.542 25.3708 311.439 27.5415 309.54 30.1193V24.014H311.982C315.509 18.0444 319.037 13.3637 322.564 9.97193C326.228 6.44444 330.026 3.9345 333.961 2.4421C338.031 0.814035 342.373 0 346.986 0C354.719 0 360.96 2.50994 365.708 7.52982C370.593 12.5497 373.035 20.283 373.035 30.7298V54.5403C373.035 59.1532 373.035 64.0374 373.035 69.193C373.17 74.3485 373.306 79.3684 373.442 84.2526C373.577 89.0012 373.849 93.207 374.256 96.8702H339.252ZM388.501 96.8702V91.986L403.968 88.7298H423.505L438.971 91.986V96.8702H388.501ZM396.235 96.8702C396.642 93.207 396.913 89.0012 397.049 84.2526C397.32 79.3684 397.456 74.3485 397.456 69.193C397.456 64.0374 397.456 59.1532 397.456 54.5403V31.7474C397.456 26.5918 396.574 22.9965 394.81 20.9614C393.046 18.9263 390.536 17.9088 387.28 17.9088C385.109 17.9088 382.735 18.4515 380.157 19.5368C377.715 20.4865 375.273 21.9111 372.831 23.8105C370.525 25.7099 368.422 27.9485 366.522 30.5263V24.014H368.964C372.492 18.0444 376.019 13.3637 379.547 9.97193C383.21 6.44444 387.009 3.9345 390.943 2.4421C395.014 0.814035 399.355 0 403.968 0C411.701 0 417.942 2.50994 422.691 7.52982C427.575 12.5497 430.017 20.283 430.017 30.7298V54.5403C430.017 59.1532 430.017 64.0374 430.017 69.193C430.017 74.3485 430.085 79.3684 430.221 84.2526C430.492 89.0012 430.831 93.207 431.238 96.8702H396.235Z" fill="#171717"></path>
  <path d="M493.423 100.126C485.147 100.126 477.617 98.2947 470.833 94.6316C464.05 90.8327 458.623 85.338 454.553 78.1474C450.618 70.821 448.651 61.8667 448.651 51.2842C448.651 40.1591 450.754 30.7977 454.96 23.2C459.166 15.6023 464.999 9.83626 472.461 5.90175C479.923 1.96725 488.606 0 498.511 0C505.566 0 511.467 1.22105 516.216 3.66315C521.1 6.10526 524.763 9.3614 527.205 13.4316C529.783 17.3661 531.072 21.7076 531.072 26.4561C529.987 29.9836 528.358 32.5614 526.188 34.1895C524.153 35.8175 521.371 36.6316 517.844 36.6316C514.181 36.6316 510.789 35.2749 507.668 32.5614C504.684 29.7123 503.056 24.4211 502.784 16.6877L502.377 2.4421L516.826 9.3614C514.249 8.14035 511.806 7.25848 509.5 6.71579C507.329 6.03743 504.751 5.69824 501.767 5.69824C499.189 5.69824 496.408 6.85146 493.423 9.15789C490.438 11.4643 487.928 15.5345 485.893 21.3684C483.858 27.2023 482.84 35.4105 482.84 45.993C482.84 54.1333 483.858 60.9848 485.893 66.5474C488.064 71.9743 491.049 76.1123 494.847 78.9614C498.782 81.6749 503.463 83.0316 508.889 83.0316C511.332 83.0316 513.638 82.6924 515.809 82.014C517.98 81.3357 520.015 80.386 521.914 79.1649C523.949 77.9439 525.849 76.5193 527.612 74.8912L530.665 77.7403C528.087 83.0316 524.899 87.3053 521.1 90.5614C517.437 93.8175 513.299 96.1918 508.686 97.6842C504.073 99.3123 498.985 100.126 493.423 100.126Z" fill="#171717"></path>
  <path d="M590.91 100.126C580.056 100.126 570.966 97.9555 563.64 93.614C556.449 89.2725 551.022 83.3708 547.359 75.9088C543.831 68.3111 542.068 59.6959 542.068 50.0632C542.068 40.4304 544.035 31.883 547.969 24.4211C552.04 16.8234 557.738 10.8538 565.064 6.51228C572.391 2.17076 581.006 0 590.91 0C601.899 0 610.989 2.17076 618.18 6.51228C625.371 10.8538 630.73 16.8234 634.257 24.4211C637.92 31.883 639.752 40.4304 639.752 50.0632C639.752 59.5602 637.649 68.1076 633.443 75.7053C629.373 83.3029 623.675 89.2725 616.348 93.614C609.022 97.9555 600.543 100.126 590.91 100.126ZM590.91 94.4281C593.895 94.4281 596.405 93.207 598.44 90.7649C600.475 88.3228 602.035 83.9134 603.12 77.5368C604.206 71.1602 604.748 62.0023 604.748 50.0632C604.748 37.9883 604.206 28.7626 603.12 22.386C602.035 16.0094 600.475 11.6678 598.44 9.3614C596.405 6.9193 593.895 5.69824 590.91 5.69824C587.925 5.69824 585.415 6.9193 583.38 9.3614C581.345 11.8035 579.785 16.2129 578.699 22.5895C577.614 28.9661 577.071 38.124 577.071 50.0632C577.071 62.0023 577.614 71.2281 578.699 77.7403C579.785 84.117 581.345 88.5263 583.38 90.9684C585.415 93.2748 587.925 94.4281 590.91 94.4281Z" fill="#171717"></path>
  <path d="M668.55 99.3123C663.937 99.3123 659.935 97.6842 656.543 94.4281C653.287 91.0362 651.659 87.0339 651.659 82.4211C651.659 77.8082 653.287 73.8737 656.543 70.6175C659.935 67.2257 663.937 65.5298 668.55 65.5298C673.299 65.5298 677.301 67.2257 680.557 70.6175C683.813 73.8737 685.441 77.8082 685.441 82.4211C685.441 87.0339 683.813 91.0362 680.557 94.4281C677.301 97.6842 673.299 99.3123 668.55 99.3123Z" fill="#F97316"></path>
</svg>
